<?xml version="1.0" encoding="UTF-8" standalone="no"?>
<!-- Created with Inkscape (http://www.inkscape.org/) -->

<svg
   width="150"
   height="150"
   viewBox="0 0 150 150"
   version="1.1"
   id="svg1"
   xml:space="preserve"
   xmlns="http://www.w3.org/2000/svg"
   xmlns:svg="http://www.w3.org/2000/svg"><defs
     id="defs1"><clipPath
       clipPathUnits="userSpaceOnUse"
       id="clipPath26-0"><rect
         style="opacity:0.999;fill:#ffffff;fill-opacity:1;stroke-width:2.13555;paint-order:markers fill stroke"
         id="rect26-0"
         width="99.913071"
         height="85.457458"
         x="-346.44916"
         y="206.03203" /></clipPath></defs><path
     style="display:inline;fill:#ffffff;fill-opacity:1;stroke-width:1.73762"
     d="m 1318.6338,897.54089 2e-4,-18.34198 8.9078,5.5055 8.9082,5.50545 v 12.83648 12.8363 h -8.9082 -8.908 z m 2.0878,80.69825 0.4158,-53.44845 6.8199,2e-5 6.8204,-2e-5 -0.4157,53.44846 -0.4154,53.44835 h -6.8202 -6.8204 z m -2.0876,75.19266 v -12.8365 h 8.908 l 8.908,-10e-5 10e-5,18.3421 -10e-5,18.3418 -8.908,-5.5054 -8.9082,-5.5055 z m 28.1002,-141.54028 -3.0775,-15.87683 11.9855,3.99119 11.986,3.99112 3.0776,15.87678 3.0779,15.87678 -11.9859,-3.99113 -11.9858,-3.99097 z m -1.3762,42.38204 v -13.15134 l 11.135,3.70741 11.1352,3.70754 2.8743,14.81976 2.8741,14.81966 -14.0093,-5.37588 -14.0093,-5.37582 z m 1.3762,37.79062 -3.0777,-15.877 11.9857,3.99116 11.986,3.99108 3.0778,15.87698 3.0777,15.8767 -11.9857,-3.9912 -11.986,-3.9911 z m -1.3762,33.66702 v -11.3007 l 13.3621,5.1274 13.3623,5.1276 -3e-4,34.3996 v 34.3993 l -13.3617,-5.1273 -13.3624,-5.1273 10e-5,-12.4094 -10e-5,-12.4089 h 10.6898 10.6894 l -10.6896,-10.6896 -10.6896,-10.6897 z m 35.6322,-92.70593 v -16.58346 l 13.3622,5.12755 13.3622,5.1275 v 16.58348 l -10e-5,16.5835 -13.3621,-5.12752 -13.3622,-5.12758 z m 1.3765,41.22272 -3.0779,-15.87696 11.9857,3.99115 11.9861,3.99111 3.0775,15.87701 3.0779,15.87681 -11.9859,-3.99119 -11.9856,-3.99114 z m 0.2036,36.68941 -2.8744,-14.81975 14.0092,5.37585 14.0094,5.3758 v 13.1515 13.1513 l -11.1353,-3.7076 -11.1349,-3.7075 z m -1.5801,41.3246 v -13.1513 l 11.135,3.7076 11.1353,3.7076 2.8742,14.8196 2.8739,14.8197 -14.0091,-5.3757 -14.0093,-5.3759 z m 1.3762,37.7907 -3.0776,-15.8768 11.9857,3.9912 11.9861,3.9911 3.0778,15.8767 3.0776,15.877 -11.9859,-3.9911 -11.9856,-3.9911 z m 34.256,-135.77911 v -13.15135 l 11.1353,3.70734 11.135,3.70758 2.8741,14.81978 2.8741,14.81965 -14.009,-5.37587 -14.0095,-5.37583 z m 1.5803,38.8477 -2.8745,-14.81975 14.0093,5.37583 14.0092,5.37601 v 13.15132 13.1512 l -11.1351,-3.7075 -11.1351,-3.7077 z m -1.5803,37.89261 v -16.5834 l 13.3623,5.1274 13.362,5.1274 v 16.5834 16.5837 l -13.3622,-5.1274 -13.3618,-5.1275 z m 2.5717,59.4462 -1.8825,-33.3034 10.7906,3.5836 10.7904,3.5837 1.8825,33.3036 1.8825,33.3036 -10.7906,-3.5839 -10.7903,-3.5838 z m 34.679,-95.13985 0.4818,-34.89725 8.1379,-10e-6 h 8.1371 l 5.4729,14.26112 5.4724,14.261 -11.1572,6.89559 -11.1571,6.8955 9.8588,6.0933 9.8591,6.0932 2e-4,12.5568 -2e-4,12.5568 -12.7932,-4.9096 -12.7937,-4.9091 z m -0.2419,59.10015 -3.078,-15.8769 11.986,3.9912 11.9856,3.9912 3.0779,15.8768 3.0777,15.8769 -11.9857,-3.9913 -11.9859,-3.9909 z m 0.2225,58.1186 0.4827,-34.9534 12.3214,4.7282 12.321,4.7281 2e-4,12.4089 v 12.4091 h -10.6897 -10.6897 l 10.6896,10.6897 10.6896,10.6897 v 7.1265 7.1264 h -12.8034 l -12.8038,-2e-4 z m 34.0332,-48.9423 3e-4,-93.85506 20.043,-12.46389 20.0431,-12.46411 56.1528,-32.28166 56.1526,-32.28161 h 3.9766 3.9767 v 92.75511 92.75482 l -73.4914,42.0593 -73.4915,42.0592 -6.6811,3.7866 -6.6811,3.7864 z"
     id="path7457"
     transform="matrix(0.30339969,0,0,0.30339969,-375.07307,-233.9596)" /></svg>
