<svg version="1.1" xmlns="http://www.w3.org/2000/svg" xmlns:xlink="http://www.w3.org/1999/xlink" x="0px" y="0px" width="740.9px" height="1106.2px" viewBox="0 0 740.9 1106.2" style="enable-background:new 0 0 740.9 1106.2;" xml:space="preserve">
<style type="text/css">
	.st0{fill-rule:evenodd;clip-rule:evenodd;fill:#2E2014;filter:url(#AI_GaußscherWeichzeichner_7);}
	.st1{fill-rule:evenodd;clip-rule:evenodd;fill:#FFFFFF;}
	.st2{fill-rule:evenodd;clip-rule:evenodd;fill:#CE0E2D;}
	.st5{
		fill-rule: evenodd;
		clip-rule:evenodd;
		fill:#FFFFFF;
		animation:spin 12s linear infinite;
	}
</style>
<filter id="AI_GaußscherWeichzeichner_7">
	<feGaussianBlur stdDeviation="7"></feGaussianBlur>
</filter>
<g id="Shadow">
	<path class="st0" d="M515.4,230.8L515.4,230.8v-5.1l1.2-1.9l-1.3-0.5h1.3c-0.4-1.6-1.1-1.7-1.2-3.5l0-0.1v-22.5l0-11.3h0l0-2h0
		l0-0.3v-4.3h0l0-28.5l4.7-2c-1.5-3.1-4.1-4.8-4.8-8l-4.1-17.6c-6.1-25.7-11.9-51.9-18.1-77.5c-0.6-2.5-0.4-5.6-0.4-8.4
		c0.4-1.6,2-1.4,0-3.5V28l3.7-0.1l0-1.5l-3.7,0l0-3.4h-1.6l0,3.3l-3.7,0.1l-0.1,1.5h3.7c0,1.7,0.1,3.6,0,5.3
		c-0.1,1.9-0.5,0.5-0.8,1.9c-0.3,1,0.2,1.2,0.7,1.8c1.7,3.6-3.9,24.8-5.1,29.6l-17.3,74.1c-0.8,3.7-3.8,5.4-4.8,8.2l4.7,2.1l0,28.5
		h0v2.7c0,0.2,0,0.5,0,1l0,0.1l0,2.8h0l0,33.5v0.1v0c0,2-0.7,1.9-1.1,3.6h0.4l-0.4,0.5l1.1,2v5.1v2.3h-2.9v0l-39.2,0v7.7h-2.9v0
		l-117.4,0v5.7h-1h-43.1v0v-42.1v-32.9h0v-2l-2.5,0c-0.6-3.4,0.8-3.8-1.7-6.3c-1-1-3.6-2.8-4.8-3.2l0,9.5l-2.6,0h2.6v2.1h6.6v-2h2.5
		c0-4.1,0.1-6.1-2.2-8.4c-1.1-1.1-4.4-3.3-6.2-4.2c0.1-2.7,2-5.4,3.2-6.9l1.9-2.1h-69.1l69.1,0l0-2.6c-4.2-1.3-8.3-3-11.5-5.3
		c-3.8-2.7-5.3-4.7-7.8-9.1h0v-2.1c0.7-0.1,1.2-0.4,2.5-1c10.8-5.1,12.2-14.6,4.3-22.7l-5.6-6.6c-2.7-3.6-4.8-7.6-6-12.3
		c-1.3-5.3-0.9-9.1-1.3-11V73h-0.2c0.6-0.2,0.7-1.2,2.1-2.5c0.5-0.5,2-1.7,2.7-1.9v-2.1h-27.4l27.4,0l0.1-1.5c-4.2-1-7.4-4-9.7-7.5
		c-2.4-3.8-3.4-8.8-3.5-14.1c1.6-0.3,3-1.5,3-3.4c0-1.4-0.7-2.6-1.7-3.2c-1.5-0.9-1-0.6-1-6.3h2.7v-1.9c-3.3,0-2.8,0.7-2.7-4h-1.8
		l0,3.9l-2.6,0.1l-0.1,1.9l2.8,0l0,5.8c-0.7,0.5-2.8,1.1-2.7,3.7c0,1.9,1.4,3,3,3.5c0,5.1-1.2,10.3-3.4,13.9c-1.8,3-5.5,6.6-9.8,7.6
		l0,1.5v2.1h0.2c1.3,0.6,3.7,2.6,4.3,4.5V75H233l-18.3,0c-0.2,8.2-1.5,13.8-4.9,19.9c-5.3,9.3-15.2,13.5-12.4,23.7
		c0.9,3.5,3,5.5,5.2,7.1c1.3,0.9,2.5,1.6,4,2.2c1,0.4,1.6,0.6,2.1,0.7h-0.1v2.2c-2.6,4.5-4,6.5-7.8,9.1c-6,4.1-9.3,4.1-11.5,5.4
		l0,2.5l1.9,2.1c1.2,1.1,2.8,4.2,3.2,6.6l-3.3,2.1c-1.1,0.7-2.2,1.5-3,2.3c-2.3,2.3-2.2,4.3-2.2,8.3l2.7,0h-2.7v2.1l0,32.9h-2.1
		H19.3H18v23.6h1.3v2.8H18V379v11.6l1.3-0.2v18.1l-1.3,0.2v308.5C18,922.8,176.5,1091,370.3,1091c193.8,0,352.3-168.2,352.3-373.8
		v-285v-23.3v-18.2V247.2h-58.4l0-165.3l-14.4,0l0,14l-7.8,0l-0.1-14l-14.5,0l0,14l-7.8-0.1l0-13.9l-6,0l0-27.6
		c7.8-0.3,19.1-0.1,27.3,0c-0.7-1.3-5.3-5.1-6.5-7c1.5-2.3,5.6-5.3,6.5-7l-27.2,0l-0.1-2.6l-2,0l-0.1,29c-3.2,0-20.9-0.2-22.6,0.1
		l-0.1,15l-6.1,0l0,14c-2.2,0-6,0.2-7.8-0.1l0-13.9l-14.5,0v151.2h-2.9v0h-39.3v0h-2.9V230.8L515.4,230.8z M188.5,171.4h6.4v-2.1
		l0-9.5c-1.2,0.3-4.1,2.4-4.8,3c-1.7,1.5-1.6,3.5-1.6,6.5V171.4L188.5,171.4z"></path>
</g>
<g id="Background">
	<path class="st1" d="M503.4,207.8L503.4,207.8v-5.1l1.2-1.9l-1.3-0.5h1.3c-0.4-1.6-1.1-1.7-1.2-3.5l0-0.1v-22.5l0-11.3h0l0-2h0
		l0-0.3v-4.3h0l0-28.5l4.7-2c-1.5-3.1-4.1-4.8-4.8-8l-4.1-17.6c-6.1-25.7-11.9-51.9-18.1-77.5c-0.6-2.5-0.4-5.6-0.4-8.4
		c0.4-1.6,2-1.4,0-3.5V5l3.7-0.1l0-1.5l-3.7,0l0-3.4h-1.6l0,3.3l-3.7,0.1l-0.1,1.5h3.7c0,1.7,0.1,3.6,0,5.3
		c-0.1,1.9-0.5,0.5-0.8,1.9c-0.3,1,0.2,1.2,0.7,1.8c1.7,3.6-3.9,24.8-5.1,29.6l-17.3,74.1c-0.8,3.7-3.8,5.4-4.8,8.2l4.7,2.1l0,28.5
		h0v2.7c0,0.2,0,0.5,0,1l0,0.1l0,2.8h0l0,33.5v0.1v0c0,2-0.7,1.9-1.1,3.6h0.4l-0.4,0.5l1.1,2v5.1v2.3h-2.9v0l-39.2,0v7.7h-2.9v0
		l-117.4,0v5.7h-1h-43.1v0v-42.1v-32.9h0v-2l-2.5,0c-0.6-3.4,0.8-3.8-1.7-6.3c-1-1-3.6-2.8-4.8-3.2l0,9.5l-2.6,0h2.6v2.1h6.6v-2h2.5
		c0-4.1,0.1-6.1-2.2-8.4c-1.1-1.1-4.4-3.3-6.2-4.2c0.1-2.7,2-5.4,3.2-6.9l1.9-2.1h-69.1l69.1,0l0-2.6c-4.2-1.3-8.3-3-11.5-5.3
		c-3.8-2.7-5.3-4.7-7.8-9.1h0v-2.1c0.7-0.1,1.2-0.4,2.5-1c10.8-5.1,12.2-14.6,4.3-22.7l-5.6-6.6c-2.7-3.6-4.8-7.6-6-12.3
		c-1.3-5.3-0.9-9.1-1.3-11V50h-0.2c0.6-0.2,0.7-1.2,2.1-2.5c0.5-0.5,2-1.7,2.7-1.9v-2.1h-27.4l27.4,0l0.1-1.5c-4.2-1-7.4-4-9.7-7.5
		c-2.4-3.8-3.4-8.8-3.5-14.1c1.6-0.3,3-1.5,3-3.4c0-1.4-0.7-2.6-1.7-3.2c-1.5-0.9-1-0.6-1-6.3h2.7V5.5c-3.3,0-2.8,0.7-2.7-4h-1.8
		l0,3.9l-2.6,0.1l-0.1,1.9l2.8,0l0,5.8c-0.7,0.5-2.8,1.1-2.7,3.7c0,1.9,1.4,3,3,3.5c0,5.1-1.2,10.3-3.4,13.9c-1.8,3-5.5,6.6-9.8,7.6
		l0,1.5v2.1h0.2c1.3,0.6,3.7,2.6,4.3,4.5V52H221l-18.3,0c-0.2,8.2-1.5,13.8-4.9,19.9c-5.3,9.3-15.2,13.5-12.4,23.7
		c0.9,3.5,3,5.5,5.2,7.1c1.3,0.9,2.5,1.6,4,2.2c1,0.4,1.6,0.6,2.1,0.7h-0.1v2.2c-2.6,4.5-4,6.5-7.8,9.1c-6,4.1-9.3,4.1-11.5,5.4
		l0,2.5l1.9,2.1c1.2,1.1,2.8,4.2,3.2,6.6l-3.3,2.1c-1.1,0.7-2.2,1.5-3,2.3c-2.3,2.3-2.2,4.3-2.2,8.3l2.7,0h-2.7v2.1l0,32.9h-2.1H7.3
		H6v23.6h1.3v2.8H6V356v11.6l1.3-0.2v18.1L6,385.7v308.5C6,899.8,164.5,1068,358.3,1068c193.8,0,352.3-168.2,352.3-373.8v-285v-23.3
		v-18.2V224.2h-58.4l0-165.3l-14.4,0l0,14l-7.8,0l-0.1-14l-14.5,0l0,14l-7.8-0.1l0-13.9l-6,0l0-27.6c7.8-0.3,19.1-0.1,27.3,0
		c-0.7-1.3-5.3-5.1-6.5-7c1.5-2.3,5.6-5.3,6.5-7l-27.2,0l-0.1-2.6l-2,0l-0.1,29c-3.2,0-20.9-0.2-22.6,0.1l-0.1,15l-6.1,0l0,14
		c-2.2,0-6,0.2-7.8-0.1l0-13.9l-14.5,0v151.2h-2.9v0h-39.3v0h-2.9V207.8L503.4,207.8z M176.5,148.4h6.4v-2.1l0-9.5
		c-1.2,0.3-4.1,2.4-4.8,3c-1.7,1.5-1.6,3.5-1.6,6.5V148.4L176.5,148.4z"></path>
</g>
<g id="Ebene_2">
	<path class="st2" d="M234.9,116.9c3.2,2.3,7.4,3.9,11.5,5.3l0,2.6l-69.1,0l0-2.5c2.2-1.3,5.4-1.3,11.5-5.4c3.8-2.6,5.2-4.6,7.8-9.1
		l30.6,0C229.6,112.1,231.1,114.2,234.9,116.9L234.9,116.9z M179.2,126.9l65.4-0.1c-1.1,1.6-3.1,4.2-3.2,6.9
		c1.9,0.9,5.1,3.1,6.2,4.2c2.3,2.3,2.2,4.3,2.2,8.4l-2.5,0c-0.6-3.4,0.8-3.8-1.7-6.3c-1-1-3.6-2.8-4.8-3.2l0,9.5
		c-18.7,0-39.1,0.2-57.7,0l0-9.5c-1.2,0.3-4.1,2.4-4.8,3c-1.7,1.5-1.6,3.5-1.6,6.5l-2.7,0c0-4.1-0.1-6,2.2-8.3
		c0.8-0.8,1.8-1.6,3-2.3l3.3-2.1C181.9,131.2,180.3,128,179.2,126.9L179.2,126.9z M173.9,148.4l75.9,0l0,72.1l-39,0.1
		c0.3-2.4,1.5,0,1.5-5.1c0-2.3,0.1-4.7,0-6.9l-38.5,0L173.9,148.4L173.9,148.4z M171.8,181.3l0.1,27.2h-30.5c-0.1,2.4,0,4.8,0,7.2
		c0,5.4,1.3,1.2,1.3,6c0,5,0,9.9,0,14.9l-56.8,0c0-5.7,0-11.5,0-17.2c0-3.2-0.3-5,0.7-7.9c0.4-1.3,2.1-5.5,2.1-6.6H6v-23.6H171.8
		L171.8,181.3z M144.2,211.3l65.3,0l0,4.6c0,2.6-1.5,1.9-1.6,3.9c-0.1,1.8,0,3.8,0,5.6l0,102.2c-13.8,1.5-27.6,3.3-41.3,5.3
		c-7.1,1-14.1,2.1-21.1,3.4c-0.1-39.3,0.1-71.7,0.1-112.2c0-1.3,0.1-3.2,0-4.4c-0.1-1.5-1.5-1.6-1.5-3.2L144.2,211.3L144.2,211.3z
		 M211,327.3c0.1-33.9-0.1-52.7-0.1-89.1c0-2.8,0-5.6,0-8.3c0-1.9-1.4-4.5-1.9-6.4l84,0c-0.1,2-1.8,3.9-1.8,6.4l0,58.8
		c0,17.4-0.1,21.1-0.1,32.4C264.3,322.3,237.6,324.4,211,327.3L211,327.3z M293.9,320.8V217.8l117.4,0v102.7
		C372.3,318.9,333,319,293.9,320.8L293.9,320.8z M414.2,320.5v-23.2l39.2,0l0,25.5C440.4,321.8,427.4,321.1,414.2,320.5L414.2,320.5
		z M456.4,323l0-120.6l47-0.1v124.9C487.8,325.5,472.1,324.1,456.4,323L456.4,323z M506.3,327.6v-30.2l39.3,0l0,35.2
		C532.5,330.7,519.4,329,506.3,327.6L506.3,327.6z M548.4,332.9v-274l14.5,0l0,13.9c1.8,0.4,5.6,0.1,7.8,0.1l0-14l6.1,0l0.1-15
		c1.7-0.3,19.4-0.2,22.6-0.1l0.1-29l2,0l0.1,2.6l27.2,0c-0.9,1.6-5,4.6-6.5,7c1.2,1.9,5.8,5.6,6.5,7c-8.1,0-19.5-0.2-27.3,0l0,27.6
		l6,0l0,13.9l7.8,0.1l0-14l14.5,0l0.1,14l7.8,0l0-14l14.4,0l0.1,295.3c-33.6-8.2-65.9-15.7-101.1-20.8L548.4,332.9L548.4,332.9z
		 M655.2,354.9l0-130.7l55.4,0V356v11.7c-12.3-2.3-24.4-5.1-36.5-8.1L655.2,354.9L655.2,354.9z M710.6,385.8v308.4
		c0,205.6-158.5,373.8-352.3,373.8C164.5,1068,6,899.8,6,694.2V385.7c21.8-3.6,43.2-9.8,64.6-15c32.6-7.9,65.5-15.3,98.8-20.1
		c124.9-18,254.4-17.9,379.3,0.4c41.1,6,81,15.9,121.2,25.9C683.3,380.2,696.9,383.3,710.6,385.8L710.6,385.8z M6,367.6V356V207.7
		l78.7,0c-0.4,2.9-1.7,3.5-1.7,7.5v134.1c-5.6,1.3-11.1,2.6-16.7,4C47.1,358,25.9,364,6,367.6L6,367.6z M85.9,348.6
		c0.1-25,0.2-105.2-0.2-106.4c-0.3-1-0.8-1.7-1.1-2.8h59.4c-0.9,3.4-1.2,0.7-1.2,6.1c0,32.9-0.2,59.6-0.1,91.2
		C123.7,340.2,104.8,344.2,85.9,348.6L85.9,348.6z M499.2,100.2l4.1,17.6c0.7,3.2,3.3,4.9,4.8,8h-56.4c1.1-2.8,4-4.5,4.8-8.2
		l17.3-74.1c1.2-4.8,6.8-26,5.1-29.6c-0.6-0.6-1-0.8-0.7-1.8c0.3-1.3,0.7,0,0.8-1.9c0.1-1.7,0-3.6,0-5.3h-3.7l0.1-1.5l3.7-0.1l0-3.3
		h1.6l0,3.4l3.7,0l0,1.5L480.7,5v5.9c2,2.1,0.4,1.8,0,3.5c0,2.8-0.3,5.8,0.4,8.4C487.2,48.3,493.1,74.5,499.2,100.2L499.2,100.2z
		 M456.4,127.9l47,0l0,28.5c-1,0-3.4-1.5-4.7-2c-1.3-0.5-3.6,1.2-5.1,1.7c0-1.5-0.6-1.9-2.9-3.9c-1.2-1.1-2.3-2-3.6-3.3l-7.2-6.7
		c-1.2,0.7-10.6,10.1-12.4,11.6c-1,0.8-1.3,0.7-1.3,2.3c-1.3-0.4-3.7-2.2-4.9-1.8c-1.4,0.4-3.6,2-4.9,2.1L456.4,127.9L456.4,127.9z
		 M457.8,158.1c1-0.5,1.9-0.8,2.9-1.3c2.1-1,1.8,0,5.6,1.4l0,2.6l-9.9,0C456.4,158.8,456,158.9,457.8,158.1L457.8,158.1z
		 M498.5,156.5c1,0.3,3.9,1.7,4.8,2.3l0.1,2.1h-9.8l0-2.7c0.8-0.3,1.6-0.7,2.4-1C496.8,156.8,497.6,156.2,498.5,156.5L498.5,156.5z
		 M216,34.4c2.2,3.5,5.5,6.4,9.7,7.5l-0.1,1.5l-27.4,0l0-1.5c4.3-1,7.9-4.6,9.8-7.6c2.2-3.6,3.4-8.8,3.4-13.9
		c-1.6-0.5-2.9-1.5-3-3.5c-0.1-2.6,2-3.2,2.7-3.7l0-5.8l-2.8,0l0.1-1.9l2.6-0.1l0-3.9h1.8c0,4.7-0.6,4,2.7,4v1.9h-2.7
		c0,5.8-0.5,5.5,1,6.3c1,0.6,1.8,1.8,1.7,3.2c0,1.9-1.4,3.1-3,3.4C212.5,25.6,213.5,30.6,216,34.4L216,34.4z M198.2,45.5l27.3,0
		c-0.7,0.2-2.2,1.5-2.7,1.9c-1.4,1.3-1.5,2.4-2.1,2.5l-18.1,0C201.9,48.1,199.5,46,198.2,45.5L198.2,45.5z M488.7,153
		c3.6,3.2,3,2.8,2.9,7.9h-1.8c-0.9-2.9-1.3-4.7-3.1-6.3c-6-5.4-15.4-2.3-16.4,6.3l-1.9,0c0-6-0.5-4.7,1.5-6.5
		c0.6-0.5,0.8-0.8,1.4-1.4l8.8-8.1L488.7,153L488.7,153z M472.3,163.2c-1.9-10.5,13.6-12.7,15.2-3
		C489.3,170.6,474,172.7,472.3,163.2L472.3,163.2z M489.5,163l13.9-0.1l0,33.6c0,2,0.7,2.1,1.2,3.7h-49.3c0.5-1.7,1.1-1.6,1.1-3.8
		l0-33.5l13.9-0.1C472.4,174.2,487.5,174,489.5,163L489.5,163z M202.7,52l18.3,0c0.4,1.9,0,5.7,1.3,11c1.2,4.7,3.2,8.7,6,12.3
		l5.6,6.6c7.9,8,6.4,17.6-4.3,22.7c-2.4,1.1-2.2,1-5.1,1h-24.8c-2.9,0-2.8,0.2-5.1-0.8c-1.5-0.6-2.7-1.3-4-2.2
		c-2.2-1.6-4.3-3.6-5.2-7.1c-2.7-10.2,7.1-14.3,12.4-23.7C201.2,65.9,202.5,60.2,202.7,52L202.7,52z M506.3,210.1h39.3l0,85.2l-1,0
		h-38.3v-84.8L506.3,210.1L506.3,210.1z M453.5,210l0.1,85.2l-39.3,0l0-85.2L453.5,210L453.5,210z"></path>
</g>
<g id="Rad_Schatten">
	<path class="st0" d="M289.9,472.1c23.8-7.4,48.5-11.1,73.4-11.1c24.9,0,49.6,3.7,73.4,11.1c1.3,0.4,2.2,1.2,2.8,2.4
		c0.6,1.2,0.6,2.5,0.1,3.7l-10.2,24.5c-0.9,2.2-3.3,3.3-5.6,2.6c-13.9-4.2-28.3-6.9-42.8-8.1V533c34.2,3.4,66.5,16.9,93.2,38.7
		l25.3-25.3c-10.9-9.2-22.7-17.3-35.2-24.2c-2.1-1.1-2.9-3.6-2-5.8l10.2-24.5c0.5-1.2,1.4-2.1,2.7-2.6c1.3-0.5,2.5-0.4,3.7,0.3
		c44,23.4,80.2,59.8,103.2,104c0.6,1.2,0.7,2.4,0.2,3.7c-0.5,1.3-1.3,2.2-2.6,2.7l-24.5,10.2c-2.2,0.9-4.7,0-5.8-2.1
		c-6.9-13-15.3-25.2-24.7-36.5l-25.3,25.3c21.6,26.6,35,58.8,38.4,92.9h35.7c-1.2-13.9-3.7-27.7-7.6-41.2c-0.7-2.3,0.5-4.6,2.7-5.5
		l24.6-10.2c1.2-0.5,2.5-0.5,3.7,0.1c1.2,0.6,2,1.5,2.4,2.8c7.1,23.3,10.6,47.4,10.6,71.7c0,25.1-3.8,50.1-11.3,74.1
		c-0.4,1.3-1.2,2.2-2.4,2.8c-1.2,0.6-2.5,0.6-3.7,0.1L568,774.4c-2.2-0.9-3.3-3.3-2.6-5.6c4.3-14.1,7.1-28.7,8.3-43.4h-35.7
		c-3.5,34.4-17,66.8-38.9,93.5l25.3,25.3c9.2-10.8,17.3-22.5,24.1-35c1.1-2.1,3.6-2.9,5.8-2l24.6,10.2c1.2,0.5,2.1,1.4,2.6,2.7
		c0.5,1.3,0.4,2.5-0.3,3.7c-23.3,43.5-59.3,79.3-103,102.3c-1.2,0.6-2.4,0.7-3.7,0.3c-1.3-0.5-2.2-1.3-2.7-2.6l-10.2-24.5
		c-0.9-2.2,0-4.7,2.1-5.8c12.7-6.9,24.8-15.1,35.8-24.4L474,843.7c-26.6,21.6-58.8,35-92.9,38.4v35.7c14.2-1.2,28.2-3.8,41.8-7.8
		c2.3-0.7,4.6,0.5,5.5,2.6l10.2,24.5c0.5,1.2,0.5,2.5-0.1,3.7c-0.6,1.2-1.5,2-2.8,2.4c-23.5,7.2-47.9,10.8-72.4,10.8
		c-24.5,0-49-3.6-72.4-10.8c-1.3-0.4-2.2-1.2-2.8-2.4c-0.6-1.2-0.6-2.5-0.1-3.7l10.2-24.5c0.9-2.2,3.3-3.3,5.5-2.6
		c13.6,4,27.7,6.6,41.8,7.8v-35.7c-34.3-3.4-66.6-16.9-93.3-38.7L227,868.7c11.2,9.5,23.3,17.8,36.2,24.7c2.1,1.1,3,3.6,2.1,5.8
		l-10.2,24.5c-0.5,1.2-1.4,2.1-2.7,2.6c-1.3,0.5-2.5,0.4-3.7-0.3c-43.7-23-79.7-58.7-103-102.3c-0.6-1.2-0.7-2.4-0.3-3.7
		c0.5-1.3,1.3-2.2,2.6-2.7l24.6-10.2c2.2-0.9,4.6,0,5.8,2c6.8,12.3,14.8,23.9,23.8,34.6l25.3-25.3c-21.8-26.6-35.2-58.9-38.7-93.2
		H153c1.2,14.7,4,29.3,8.3,43.4c0.7,2.3-0.4,4.7-2.6,5.6l-24.5,10.2c-1.2,0.5-2.5,0.5-3.7-0.1c-1.2-0.6-2-1.5-2.4-2.8
		c-7.5-24-11.3-49-11.3-74.1c0-24.3,3.5-48.5,10.6-71.7c0.4-1.3,1.2-2.2,2.4-2.8c1.2-0.6,2.5-0.6,3.7-0.1l24.6,10.2
		c2.2,0.9,3.3,3.3,2.7,5.5c-3.9,13.4-6.4,27.2-7.6,41.2h35.7c3.4-34.1,16.8-66.3,38.4-92.9l-25.3-25.3
		c-9.5,11.2-17.8,23.5-24.7,36.5c-1.1,2.1-3.6,3-5.8,2.1L146.9,600c-1.2-0.5-2.1-1.4-2.6-2.7c-0.5-1.3-0.4-2.5,0.2-3.7
		c23.1-44.2,59.2-80.6,103.2-104c1.2-0.6,2.4-0.7,3.7-0.3c1.3,0.5,2.2,1.3,2.7,2.6l10.2,24.5c0.9,2.2,0,4.7-2,5.8
		c-12.5,6.8-24.3,14.9-35.2,24.2l25.3,25.3c26.6-21.8,58.9-35.2,93.2-38.6v-35.7c-14.5,1.2-28.8,3.9-42.8,8.1
		c-2.3,0.7-4.7-0.5-5.6-2.6L287,478.2c-0.5-1.2-0.5-2.5,0.1-3.7C287.7,473.3,288.6,472.5,289.9,472.1L289.9,472.1z M314.5,654.2h31
		v-85.3c-63,8-112.9,57.9-120.9,120.9h85.3v-31C309.9,656.3,312,654.2,314.5,654.2L314.5,654.2z M416.7,658.8v31H502
		c-8-63-57.9-112.9-120.9-120.9v85.3h31C414.7,654.2,416.7,656.3,416.7,658.8L416.7,658.8z M412.1,761h-31v85.3
		c63-8,112.9-57.9,120.9-120.9h-85.3v31C416.7,758.9,414.7,761,412.1,761L412.1,761z M309.9,756.4v-31h-85.3
		c8,63,57.9,112.9,120.9,120.9V761h-31C312,761,309.9,758.9,309.9,756.4L309.9,756.4z M345.5,689.8v35.6h35.6v-35.6H345.5
		L345.5,689.8z"></path>
</g>
<g id="Rad">
	<path class="st5" d="M284.9,467.1c23.8-7.4,48.5-11.1,73.4-11.1c24.9,0,49.6,3.7,73.4,11.1c1.3,0.4,2.2,1.2,2.8,2.4
		c0.6,1.2,0.6,2.5,0.1,3.7l-10.2,24.5c-0.9,2.2-3.3,3.3-5.6,2.6c-13.9-4.2-28.3-6.9-42.8-8.1V528c34.2,3.4,66.5,16.9,93.2,38.7
		l25.3-25.3c-10.9-9.2-22.7-17.3-35.2-24.2c-2.1-1.1-2.9-3.6-2-5.8l10.2-24.5c0.5-1.2,1.4-2.1,2.7-2.6c1.3-0.5,2.5-0.4,3.7,0.3
		c44,23.4,80.2,59.8,103.2,104c0.6,1.2,0.7,2.4,0.2,3.7c-0.5,1.3-1.3,2.2-2.6,2.7l-24.5,10.2c-2.2,0.9-4.7,0-5.8-2.1
		c-6.9-13-15.3-25.2-24.7-36.5l-25.3,25.3c21.6,26.6,35,58.8,38.4,92.9h35.7c-1.2-13.9-3.7-27.7-7.6-41.2c-0.7-2.3,0.5-4.6,2.7-5.5
		l24.6-10.2c1.2-0.5,2.5-0.5,3.7,0.1c1.2,0.6,2,1.5,2.4,2.8c7.1,23.3,10.6,47.4,10.6,71.7c0,25.1-3.8,50.1-11.3,74.1
		c-0.4,1.3-1.2,2.2-2.4,2.8c-1.2,0.6-2.5,0.6-3.7,0.1L563,769.4c-2.2-0.9-3.3-3.3-2.6-5.6c4.3-14.1,7.1-28.7,8.3-43.4h-35.7
		c-3.5,34.4-17,66.8-38.9,93.5l25.3,25.3c9.2-10.8,17.3-22.5,24.1-35c1.1-2.1,3.6-2.9,5.8-2l24.6,10.2c1.2,0.5,2.1,1.4,2.6,2.7
		c0.5,1.3,0.4,2.5-0.3,3.7c-23.3,43.5-59.3,79.3-103,102.3c-1.2,0.6-2.4,0.7-3.7,0.3c-1.3-0.5-2.2-1.3-2.7-2.6l-10.2-24.5
		c-0.9-2.2,0-4.7,2.1-5.8c12.7-6.9,24.8-15.1,35.8-24.4L469,838.7c-26.6,21.6-58.8,35-92.9,38.4v35.7c14.2-1.2,28.2-3.8,41.8-7.8
		c2.3-0.7,4.6,0.5,5.5,2.6l10.2,24.5c0.5,1.2,0.5,2.5-0.1,3.7c-0.6,1.2-1.5,2-2.8,2.4c-23.5,7.2-47.9,10.8-72.4,10.8
		c-24.5,0-49-3.6-72.4-10.8c-1.3-0.4-2.2-1.2-2.8-2.4c-0.6-1.2-0.6-2.5-0.1-3.7l10.2-24.5c0.9-2.2,3.3-3.3,5.5-2.6
		c13.6,4,27.7,6.6,41.8,7.8v-35.7c-34.3-3.4-66.6-16.9-93.3-38.7L222,863.7c11.2,9.5,23.3,17.8,36.2,24.7c2.1,1.1,3,3.6,2.1,5.8
		l-10.2,24.5c-0.5,1.2-1.4,2.1-2.7,2.6c-1.3,0.5-2.5,0.4-3.7-0.3c-43.7-23-79.7-58.7-103-102.3c-0.6-1.2-0.7-2.4-0.3-3.7
		c0.5-1.3,1.3-2.2,2.6-2.7l24.6-10.2c2.2-0.9,4.6,0,5.8,2c6.8,12.3,14.8,23.9,23.8,34.6l25.3-25.3c-21.8-26.6-35.2-58.9-38.7-93.2
		H148c1.2,14.7,4,29.3,8.3,43.4c0.7,2.3-0.4,4.7-2.6,5.6l-24.5,10.2c-1.2,0.5-2.5,0.5-3.7-0.1c-1.2-0.6-2-1.5-2.4-2.8
		c-7.5-24-11.3-49-11.3-74.1c0-24.3,3.5-48.5,10.6-71.7c0.4-1.3,1.2-2.2,2.4-2.8c1.2-0.6,2.5-0.6,3.7-0.1l24.6,10.2
		c2.2,0.9,3.3,3.3,2.7,5.5c-3.9,13.4-6.4,27.2-7.6,41.2h35.7c3.4-34.1,16.8-66.3,38.4-92.9l-25.3-25.3
		c-9.5,11.2-17.8,23.5-24.7,36.5c-1.1,2.1-3.6,3-5.8,2.1L141.9,595c-1.2-0.5-2.1-1.4-2.6-2.7c-0.5-1.3-0.4-2.5,0.2-3.7
		c23.1-44.2,59.2-80.6,103.2-104c1.2-0.6,2.4-0.7,3.7-0.3c1.3,0.5,2.2,1.3,2.7,2.6l10.2,24.5c0.9,2.2,0,4.7-2,5.8
		c-12.5,6.8-24.3,14.9-35.2,24.2l25.3,25.3c26.6-21.8,58.9-35.2,93.2-38.6v-35.7c-14.5,1.2-28.8,3.9-42.8,8.1
		c-2.3,0.7-4.7-0.5-5.6-2.6L282,473.2c-0.5-1.2-0.5-2.5,0.1-3.7C282.7,468.3,283.6,467.5,284.9,467.1L284.9,467.1z M309.5,649.2h31
		v-85.3c-63,8-112.9,57.9-120.9,120.9h85.3v-31C304.9,651.3,307,649.2,309.5,649.2L309.5,649.2z M411.7,653.8v31H497
		c-8-63-57.9-112.9-120.9-120.9v85.3h31C409.7,649.2,411.7,651.3,411.7,653.8L411.7,653.8z M407.1,756h-31v85.3
		c63-8,112.9-57.9,120.9-120.9h-85.3v31C411.7,753.9,409.7,756,407.1,756L407.1,756z M304.9,751.4v-31h-85.3
		c8,63,57.9,112.9,120.9,120.9V756h-31C307,756,304.9,753.9,304.9,751.4L304.9,751.4z M340.5,684.8v35.6h35.6v-35.6H340.5
		L340.5,684.8z"></path>
</g>
</svg>
