<?xml version="1.0" encoding="UTF-8" standalone="no"?>
<!-- Created with Inkscape (http://www.inkscape.org/) -->

<svg
   width="250"
   height="150"
   viewBox="0 0 250 150"
   version="1.1"
   id="svg1"
   inkscape:version="1.3-alpha (2a5ddc9d23, 2023-03-29)"
   sodipodi:docname="weblogo.svg"
   inkscape:export-filename="weblogo.png"
   inkscape:export-xdpi="96"
   inkscape:export-ydpi="96"
   xml:space="preserve"
   xmlns:inkscape="http://www.inkscape.org/namespaces/inkscape"
   xmlns:sodipodi="http://sodipodi.sourceforge.net/DTD/sodipodi-0.dtd"
   xmlns="http://www.w3.org/2000/svg"
   xmlns:svg="http://www.w3.org/2000/svg"><sodipodi:namedview
     id="namedview1"
     pagecolor="#ffffff"
     bordercolor="#000000"
     borderopacity="1"
     inkscape:showpageshadow="0"
     inkscape:pageopacity="0"
     inkscape:pagecheckerboard="0"
     inkscape:deskcolor="#ffffff"
     inkscape:document-units="px"
     inkscape:zoom="1.8541911"
     inkscape:cx="104.62783"
     inkscape:cy="95.189757"
     inkscape:window-width="1920"
     inkscape:window-height="1001"
     inkscape:window-x="-9"
     inkscape:window-y="-9"
     inkscape:window-maximized="1"
     inkscape:current-layer="layer2"><sodipodi:guide
       position="0,150"
       orientation="0,250"
       id="guide1"
       inkscape:locked="false" /><sodipodi:guide
       position="250,150"
       orientation="150,0"
       id="guide2"
       inkscape:locked="false" /><sodipodi:guide
       position="250,0"
       orientation="0,-250"
       id="guide3"
       inkscape:locked="false" /><sodipodi:guide
       position="0,0"
       orientation="-150,0"
       id="guide4"
       inkscape:locked="false" /></sodipodi:namedview><defs
     id="defs1"><clipPath
       clipPathUnits="userSpaceOnUse"
       id="clipPath26-0"><rect
         style="opacity:0.999;fill:#ffffff;fill-opacity:1;stroke-width:2.13555;paint-order:markers fill stroke"
         id="rect26-0"
         width="99.913071"
         height="85.457458"
         x="-346.44916"
         y="206.03203" /></clipPath></defs><g
     inkscape:groupmode="layer"
     id="layer2"
     inkscape:label="logo"
     style="display:inline"><g
       id="g7458"
       transform="matrix(0.30339969,0,0,0.30339969,-375.07307,-233.9596)"
       style="display:inline"><path
         style="display:inline;fill:#000000;fill-opacity:1"
         d="m 1910.6509,1113.1674 h -10.5558 l 3.1684,-5.1266 3.1684,-5.1266 h 7.3874 7.3873 v 5.1266 5.1266 z m 46.4419,-1.2016 -30.7596,-0.2391 v -3.925 -3.9251 l 30.7596,0.2392 30.7596,0.2391 v 3.9251 3.925 z m 43.2735,1.2016 h -7.3874 v -5.1266 -5.1266 h 10.5558 10.5557 l -3.1684,5.1266 -3.1684,5.1266 z m -81.4566,-16.1718 -9.1371,1.7712 2.2969,-6.8978 2.2969,-6.8979 9.1371,-1.7712 9.1371,-1.7713 -2.2969,6.8979 -2.2968,6.8978 z m 24.3909,0.792 h -7.5686 l 2.1336,-6.4082 2.1337,-6.4083 8.5288,-1.6541 8.5287,-1.6541 -3.0938,8.0624 -3.0938,8.0623 z m 21.7485,-0.792 -9.1372,1.7712 2.2969,-6.8978 2.2969,-6.8979 9.1372,-1.7712 9.1371,-1.7713 -2.2969,6.8979 -2.2969,6.8978 z m 19.3755,0.792 h -6.5036 l 2.9508,-7.6899 2.9509,-7.6899 h 19.797 19.797 l -2.9509,7.6899 -2.9508,7.6899 h -7.1415 -7.1414 v -6.1519 -6.1519 l -6.1519,6.1519 -6.1519,6.1519 z m -53.3524,-20.5064 h -9.5438 l 2.9509,-7.6899 2.9509,-7.6899 h 9.5438 9.5438 l -2.9509,7.6899 -2.9509,7.6899 z m 23.7237,-0.792 -9.1372,1.7712 2.2969,-6.8978 2.2969,-6.8979 9.1372,-1.7712 9.1371,-1.7713 -2.2969,6.8979 -2.2969,6.8978 z m 21.1148,-0.1172 -8.5288,1.6541 3.0938,-8.0623 3.0938,-8.0624 h 7.5687 7.5686 l -2.1337,6.4083 -2.1337,6.4082 z m 23.7824,0.9092 h -7.5686 l 2.1337,-6.4082 2.1337,-6.4083 8.5287,-1.654 8.5288,-1.6541 -3.0938,8.0623 -3.0938,8.0623 z m 21.7485,-0.792 -9.1371,1.7712 2.2969,-6.8978 2.2969,-6.8979 9.1371,-1.7712 9.1372,-1.7713 -2.2969,6.8979 -2.2969,6.8978 z m -78.141,-19.7143 h -7.5686 l 2.1336,-6.4083 2.1337,-6.4082 8.5288,-1.6541 8.5287,-1.6541 -3.0938,8.0623 -3.0938,8.0624 z m 22.3569,-0.9093 -8.5288,1.6541 3.0938,-8.0623 3.0939,-8.0623 h 7.5686 7.5686 l -2.1337,6.4082 -2.1337,6.4083 z m 21.8073,0.9093 h -9.5438 l 2.9508,-7.6899 2.9509,-7.6899 h 9.5438 9.5438 l -2.9508,7.6899 -2.9509,7.6899 z m 34.2113,-1.48 -19.1662,1.0834 2.0625,-6.21 2.0624,-6.2099 19.1662,-1.0834 19.1662,-1.0834 -2.0625,6.21 -2.0625,6.21 z m -54.7531,-19.9579 -20.0834,-0.2772 v -4.6832 -4.6831 l 8.2073,-3.1495 8.2073,-3.1494 3.9683,6.421 3.9684,6.4209 3.5067,-5.6739 3.5067,-5.6739 h 7.2264 7.2265 l -2.8254,7.3627 -2.8253,7.3627 z m 34.0122,0.1394 -9.1371,1.7713 2.2969,-6.8979 2.2969,-6.8978 9.1371,-1.7713 9.1372,-1.7712 -2.2969,6.8978 -2.2969,6.8979 z m 33.4473,-0.1282 -20.1157,-0.2776 2.7211,-7.091 2.721,-7.0909 h 7.1414 7.1414 v 6.1519 6.1519 l 6.1519,-6.1519 6.1519,-6.1519 h 4.1013 4.1013 v 7.3685 7.3686 z m -28.1663,-19.5861 h -54.0137 l -7.173,-11.5349 -7.1731,-11.53481 -18.5781,-32.3159 -18.5781,-32.3159 v -2.2886 -2.2886 h 53.3806 53.3806 l 24.2051,42.2944 24.2052,42.29441 2.1791,3.8449 2.179,3.845 z"
         id="path7457" /><g
         aria-label="RUPERTI EXPLORER"
         id="text7458"
         style="font-weight:800;font-size:126.456px;line-height:0.8;font-family:'Open Sans';-inkscape-font-specification:'Open Sans Ultra-Bold';text-align:justify;display:inline;opacity:0.999;stroke-width:10.25;paint-order:markers fill stroke"><path
           d="m 1265.8105,921.98911 q 12.2875,0 20.438,3.02556 8.1505,2.96381 12.2257,8.89144 4.137,5.92762 4.137,14.75731 0,5.49541 -1.8524,10.00287 -1.8524,4.50747 -5.3101,8.08874 -3.3961,3.51953 -8.1505,6.17461 l 26.3038,39.33226 h -27.6622 l -19.1413,-32.84892 h -6.1746 v 32.84892 h -24.3897 v -90.27279 z m -0.3704,18.46208 h -4.8162 v 20.6232 h 4.5692 q 5.6189,0 9.2001,-2.46984 3.5813,-2.46985 3.5813,-8.8297 0,-4.38397 -2.9638,-6.85381 -2.9638,-2.46985 -9.5706,-2.46985 z"
           id="path7458"
           style="fill:#000000;fill-opacity:1" /><path
           d="m 1398.5646,921.98911 v 54.33656 q 0,11.36129 -4.3222,19.75876 -4.3222,8.33567 -12.9667,12.90497 -8.6444,4.5074 -21.6729,4.5074 -18.6473,0 -28.4649,-9.5706 -9.8176,-9.57067 -9.8176,-27.04481 v -54.89228 h 24.5132 v 52.97815 q 0,9.57065 3.5812,13.89287 3.5813,4.32223 10.5586,4.32223 5.0015,0 8.1505,-1.85238 3.1491,-1.91413 4.5692,-5.98938 1.4819,-4.07524 1.4819,-10.49683 v -52.85466 z"
           id="path7459"
           style="fill:#000000;fill-opacity:1" /><path
           d="m 1448.7642,921.98911 q 17.1654,0 25.6864,7.47128 8.5827,7.47128 8.5827,21.24066 0,6.17461 -1.7906,11.85525 -1.7289,5.68064 -5.7424,10.12636 -3.9518,4.44571 -10.5586,7.03905 -6.5451,2.59334 -16.1775,2.59334 h -6.8538 v 29.94685 h -24.3897 v -90.27279 z m -0.5557,19.69701 h -6.2981 v 20.74668 h 4.8162 q 3.149,0 5.8659,-1.04968 2.7168,-1.11143 4.3222,-3.51953 1.6671,-2.46984 1.6671,-6.54508 0,-4.26048 -2.5316,-6.91557 -2.5315,-2.71682 -7.8417,-2.71682 z"
           id="path7460"
           style="fill:#000000;fill-opacity:1" /><path
           d="m 1551.0157,1012.2619 h -53.5956 v -90.27279 h 53.5956 v 19.57351 h -29.2059 v 14.20161 h 27.0448 v 19.57351 h -27.0448 v 17.04192 h 29.2059 z"
           id="path7461"
           style="fill:#000000;fill-opacity:1" /><path
           d="m 1596.3991,921.98911 q 12.2875,0 20.438,3.02556 8.1505,2.96381 12.2257,8.89144 4.137,5.92762 4.137,14.75731 0,5.49541 -1.8524,10.00287 -1.8524,4.50747 -5.3101,8.08874 -3.3961,3.51953 -8.1505,6.17461 l 26.3038,39.33226 h -27.6622 l -19.1413,-32.84892 h -6.1746 v 32.84892 h -24.3898 v -90.27279 z m -0.3705,18.46208 h -4.8161 v 20.6232 h 4.5692 q 5.6189,0 9.2001,-2.46984 3.5813,-2.46985 3.5813,-8.8297 0,-4.38397 -2.9638,-6.85381 -2.9638,-2.46985 -9.5707,-2.46985 z"
           id="path7462"
           style="fill:#000000;fill-opacity:1" /><path
           d="m 1692.2291,1012.2619 h -24.3898 v -70.3288 h -22.0433 v -19.94399 h 68.4147 v 19.94399 h -21.9816 z"
           id="path7463"
           style="fill:#000000;fill-opacity:1" /><path
           d="m 1727.1156,1012.2619 v -90.27279 h 24.5132 v 90.27279 z"
           id="path7464"
           style="fill:#000000;fill-opacity:1" /><path
           d="m 1289.8298,1113.4267 h -53.5956 v -90.2728 h 53.5956 v 19.5735 h -29.2059 v 14.2016 h 27.0448 v 19.5735 h -27.0448 v 17.042 h 29.2059 z"
           id="path7465"
           style="fill:#000000;fill-opacity:1" /><path
           d="m 1386.9564,1113.4267 h -28.218 l -17.5976,-28.218 -17.4124,28.218 h -27.6005 l 29.9468,-46.1861 -28.1562,-44.0867 h 27.0448 l 16.301,27.9092 15.6835,-27.9092 h 27.8475 l -28.5885,46.0009 z"
           id="path7466"
           style="fill:#000000;fill-opacity:1" /><path
           d="m 1428.3262,1023.1539 q 17.1655,0 25.6864,7.4713 8.5827,7.4713 8.5827,21.2406 0,6.1747 -1.7906,11.8553 -1.7289,5.6806 -5.7424,10.1264 -3.9517,4.4457 -10.5586,7.039 -6.5451,2.5933 -16.1775,2.5933 h -6.8538 v 29.9469 h -24.3897 v -90.2728 z m -0.5557,19.697 h -6.2981 v 20.7467 h 4.8162 q 3.1491,0 5.8659,-1.0497 2.7168,-1.1114 4.3222,-3.5195 1.6672,-2.4698 1.6672,-6.5451 0,-4.2605 -2.5316,-6.9156 -2.5316,-2.7168 -7.8418,-2.7168 z"
           id="path7467"
           style="fill:#000000;fill-opacity:1" /><path
           d="m 1476.9822,1113.4267 v -90.2728 h 24.3897 v 70.5758 h 34.763 v 19.697 z"
           id="path7468"
           style="fill:#000000;fill-opacity:1" /><path
           d="m 1635.0522,1068.1668 q 0,10.4351 -2.5316,19.0178 -2.4699,8.521 -7.78,14.6956 -5.3102,6.1746 -13.6459,9.5089 -8.3357,3.2725 -19.944,3.2725 -11.3613,0 -19.697,-3.2725 -8.274,-3.3343 -13.6459,-9.4472 -5.3719,-6.1746 -7.9652,-14.7573 -2.5934,-8.5827 -2.5934,-19.1413 0,-14.0781 4.631,-24.4514 4.6927,-10.4351 14.4486,-16.1158 9.7559,-5.7423 24.9454,-5.7423 15.4365,0 25.0689,5.7423 9.6941,5.7424 14.2016,16.1775 4.5075,10.4351 4.5075,24.5132 z m -62.1166,0 q 0,8.1505 1.8524,14.0164 1.8524,5.8659 5.8659,9.0149 4.0135,3.1491 10.4968,3.1491 6.7303,0 10.6821,-3.1491 4.0135,-3.149 5.7424,-9.0149 1.7906,-5.8659 1.7906,-14.0164 0,-12.2257 -4.0752,-19.3265 -4.0753,-7.1008 -14.0164,-7.1008 -6.6068,0 -10.6821,3.2108 -4.0135,3.2108 -5.8659,9.1384 -1.7906,5.9276 -1.7906,14.0781 z"
           id="path7469"
           style="fill:#000000;fill-opacity:1" /><path
           d="m 1680.9295,1023.1539 q 12.2875,0 20.438,3.0256 8.1505,2.9638 12.2257,8.8914 4.137,5.9276 4.137,14.7573 0,5.4954 -1.8524,10.0029 -1.8524,4.5075 -5.3102,8.0887 -3.396,3.5196 -8.1504,6.1746 l 26.3038,39.3323 h -27.6623 l -19.1412,-32.8489 h -6.1747 v 32.8489 h -24.3897 v -90.2728 z m -0.3705,18.4621 h -4.8162 v 20.6232 h 4.5693 q 5.6189,0 9.2001,-2.4699 3.5813,-2.4698 3.5813,-8.8296 0,-4.384 -2.9638,-6.8539 -2.9638,-2.4698 -9.5707,-2.4698 z"
           id="path7470"
           style="fill:#000000;fill-opacity:1" /><path
           d="m 1790.5288,1113.4267 h -53.5956 v -90.2728 h 53.5956 v 19.5735 h -29.2059 v 14.2016 h 27.0448 v 19.5735 h -27.0448 v 17.042 h 29.2059 z"
           id="path7471"
           style="fill:#000000;fill-opacity:1" /><path
           d="m 1835.9122,1023.1539 q 12.2875,0 20.438,3.0256 8.1505,2.9638 12.2257,8.8914 4.137,5.9276 4.137,14.7573 0,5.4954 -1.8524,10.0029 -1.8524,4.5075 -5.3102,8.0887 -3.396,3.5196 -8.1504,6.1746 l 26.3038,39.3323 h -27.6623 l -19.1412,-32.8489 h -6.1747 v 32.8489 h -24.3897 v -90.2728 z m -0.3705,18.4621 h -4.8162 v 20.6232 h 4.5693 q 5.6189,0 9.2001,-2.4699 3.5813,-2.4698 3.5813,-8.8296 0,-4.384 -2.9638,-6.8539 -2.9638,-2.4698 -9.5707,-2.4698 z"
           id="path7472"
           style="fill:#000000;fill-opacity:1" /></g></g></g></svg>
